<svg width="32" height="36" viewBox="0 0 32 36" fill="none" xmlns="http://www.w3.org/2000/svg">
<path d="M30.5147 12.2791C30.3429 12.3794 26.2509 14.4956 26.2509 19.1877C26.4438 24.5387 31.4148 26.4153 31.5 26.4153C31.4148 26.5156 30.7495 28.9716 28.779 31.5462C27.2152 33.764 25.4795 36 22.8438 36C20.3366 36 19.4366 34.5219 16.5438 34.5219C13.4371 34.5219 12.558 36 10.1794 36C7.54373 36 5.67944 33.6442 4.03036 31.4473C1.88797 28.5718 0.0670001 24.0595 0.00271427 19.7268C-0.0406088 17.4309 0.431752 15.1741 1.63082 13.2571C3.32322 10.581 6.34466 8.76429 9.6442 8.70438C12.1723 8.62495 14.4223 10.3218 15.9652 10.3218C17.4438 10.3218 20.208 8.70438 23.3357 8.70438C24.6857 8.70569 28.2857 9.08465 30.5147 12.2791ZM15.7514 8.24599C15.3014 6.14933 16.5438 4.05267 17.7009 2.71524C19.1795 1.09782 21.5147 0 23.5285 0C23.6571 2.09666 22.8424 4.15295 21.3862 5.65056C20.0795 7.26798 17.8295 8.4856 15.7514 8.24599Z" fill="white"/>
</svg>
