<svg width="22" height="22" viewBox="0 0 22 22" fill="none" xmlns="http://www.w3.org/2000/svg">
<path d="M20.4559 12.2143L13.5595 2.47752C12.5228 1.01506 11.2925 0.192228 9.89965 0.028645C7.97114 -0.196632 6.44909 0.973492 6.16587 1.21089L2.43392 3.91391C1.01585 4.94007 0.206259 6.16774 0.0337017 7.56342C-0.208539 9.52339 0.927067 11.085 1.14578 11.3494C1.14578 11.3494 7.86545 20.8297 7.86817 20.8348C8.15822 21.2431 8.74984 21.3068 9.19322 20.9856C9.6375 20.6644 9.76649 20.0756 9.47735 19.668C9.47401 19.6613 2.69824 10.1013 2.69824 10.1013C2.6949 10.0946 1.84174 9.02863 2.00265 7.79394C2.10813 6.98215 2.64026 6.22453 3.5848 5.53905L7.42073 2.7555C7.42741 2.74875 8.46664 1.8708 9.6827 2.02091C10.4923 2.12173 11.2507 2.67001 11.943 3.64786L18.8472 13.3914C18.8648 13.4176 20.2711 15.403 19.9762 17.2401C19.8522 18.023 19.4322 18.6635 18.6923 19.2001C16.2183 20.9904 14.5029 19.2975 13.0186 17.2028C11.9651 15.7183 8.82221 11.4672 8.68583 11.2814C8.68583 11.2814 6.64591 8.66736 8.0045 7.68186C8.88193 7.04807 9.94304 7.72175 11.3207 9.66469L15.4122 15.4141C15.7056 15.8029 16.2872 15.864 16.723 15.5479C17.1604 15.2327 17.2903 14.6548 17.0197 14.2498L12.934 8.4953C11.7339 6.80235 9.73013 3.96612 6.77389 6.10751C6.00937 6.66072 5.51505 7.4148 5.46054 8.30379C5.34989 10.0975 6.76297 12.0762 7.05451 12.4162C7.35123 12.8195 10.3138 17.0369 11.3076 18.4417C13.9711 22.2005 16.9086 22.9564 19.8469 20.8278C21.0235 19.9737 21.7284 18.8712 21.9363 17.5477C22.3602 14.881 20.5332 12.3219 20.4561 12.2143L20.4559 12.2143Z" fill="white"/>
</svg>
