<svg width="26" height="26" viewBox="0 0 26 26" fill="none" xmlns="http://www.w3.org/2000/svg">
<g opacity="0.3">
<path d="M10.7934 20.8303C11.335 20.7158 14.6351 20.7158 15.1766 20.8303C15.6396 20.9372 16.1403 21.1871 16.1403 21.7327C16.1133 22.252 15.8086 22.7125 15.3877 23.0049C14.8418 23.4304 14.2011 23.6999 13.5315 23.797C13.1611 23.845 12.7972 23.8461 12.4397 23.797C11.7689 23.6999 11.1283 23.4304 10.5835 23.0038C10.1614 22.7125 9.85673 22.252 9.82981 21.7327C9.82981 21.1871 10.3305 20.9372 10.7934 20.8303ZM13.049 2.16675C15.3025 2.16675 17.6044 3.23602 18.9718 5.01013C19.859 6.15251 20.266 7.29379 20.266 9.06791V9.52944C20.266 10.89 20.6256 11.692 21.417 12.6161C22.0167 13.297 22.2083 14.1709 22.2083 15.1191C22.2083 16.0662 21.8972 16.9652 21.2738 17.6952C20.4576 18.5702 19.3067 19.1289 18.132 19.226C16.4298 19.3711 14.7265 19.4933 13.0005 19.4933C11.2735 19.4933 9.5713 19.4202 7.86907 19.226C6.69333 19.1289 5.54235 18.5702 4.72731 17.6952C4.10391 16.9652 3.79167 16.0662 3.79167 15.1191C3.79167 14.1709 3.98439 13.297 4.58303 12.6161C5.39916 11.692 5.73508 10.89 5.73508 9.52944V9.06791C5.73508 7.24578 6.18944 6.05431 7.12508 4.88793C8.51615 3.18692 10.746 2.16675 12.9521 2.16675H13.049Z" fill="white"/>
</g>
</svg>
