<svg width="16" height="16" viewBox="0 0 16 16" fill="none" xmlns="http://www.w3.org/2000/svg">
<path d="M15.353 2.37843H11.6658V1.77303C11.6442 0.800036 10.8678 0.0217153 9.89764 0.000147803L6.10251 0C5.13212 0.0215792 4.35589 0.800078 4.33438 1.77288L4.33423 2.37844H0.646987C0.280388 2.37844 0 2.65956 0 3.02716C0 3.39475 0.280369 3.67589 0.646987 3.67589H1.78983L2.47983 14.3351C2.52302 15.2648 3.27777 16 4.20495 16H11.7952C12.7224 16 13.4771 15.2648 13.5203 14.3351L14.2102 3.67551H15.353C15.7196 3.67551 16 3.39439 16 3.02679C16 2.6592 15.7196 2.37821 15.353 2.37821L15.353 2.37843ZM6.92161 12.108C6.92161 12.4756 6.64124 12.7567 6.27462 12.7567C5.908 12.7567 5.62764 12.4756 5.62764 12.108L5.62778 6.24847C5.62778 5.88089 5.90815 5.59974 6.27477 5.59974C6.64137 5.59974 6.92176 5.88087 6.92176 6.24847L6.92161 12.108ZM10.3717 12.108C10.3717 12.4756 10.0913 12.7567 9.72469 12.7567C9.35809 12.7567 9.07771 12.4756 9.07771 12.108L9.07785 6.24847C9.07785 5.88089 9.35822 5.59974 9.72484 5.59974C10.0915 5.59974 10.3718 5.88087 10.3718 6.24847L10.3717 12.108ZM10.3717 2.37843H5.62786V1.77303C5.64938 1.51364 5.84352 1.31898 6.10221 1.29741H9.89734C10.156 1.31899 10.3502 1.51365 10.3717 1.77303V2.37843Z" fill="#BADA8B"/>
</svg>
