<svg width="17" height="17" viewBox="0 0 17 17" fill="none" xmlns="http://www.w3.org/2000/svg">
<path d="M3.8439 0C2.82507 0.000741146 1.84827 0.399109 1.12767 1.10766C0.407107 1.81637 0.00154244 2.77727 0 3.77987V5.95811V5.95792C0 7.22676 0.648064 8.41056 1.72488 9.10835C1.82768 9.18357 1.88624 9.30383 1.88134 9.42982V15.008V15.0078C1.87456 15.4964 2.05155 15.9704 2.37859 16.3382C2.70545 16.706 3.15901 16.9417 3.65216 17H3.83837C4.35784 16.9993 4.85585 16.796 5.22319 16.4345C5.59054 16.073 5.79727 15.5827 5.79804 15.0715V9.42983C5.79314 9.30383 5.8517 9.18358 5.9545 9.10835C7.0345 8.41241 7.68579 7.22824 7.68748 5.95792V3.77969V3.77988C7.68616 2.77728 7.28059 1.81637 6.56001 1.10767C5.83925 0.399109 4.86241 0.000763277 3.84378 4.34265e-06L3.8439 0ZM6.60794 5.95811C6.61058 6.87452 6.14363 7.73036 5.36618 8.23453C4.96024 8.50097 4.71696 8.94973 4.71846 9.42999V15.0717C4.71959 15.3165 4.61547 15.5501 4.43189 15.7152C4.24812 15.8801 4.00222 15.9609 3.75481 15.9377C3.53037 15.907 3.32532 15.7962 3.17904 15.6261C3.03256 15.456 2.95499 15.2388 2.9612 15.0159V9.43778V9.43796C2.96609 8.95675 2.72603 8.50504 2.32142 8.23453C1.54645 7.73316 1.07986 6.88159 1.07986 5.96883V3.79059C1.10999 2.8395 1.64304 1.97313 2.4854 1.50601C3.32782 1.0389 4.35715 1.0389 5.19956 1.50601C6.04197 1.97312 6.57498 2.8395 6.60511 3.79059L6.60794 5.95811ZM16.9948 0.531254V5.95811C16.9869 7.29198 16.2701 8.52449 15.1054 9.20672V15.0719C15.08 15.7443 14.7007 16.3554 14.1044 16.6844C13.5079 17.0137 12.7806 17.0137 12.1841 16.6844C11.5878 16.3553 11.2086 15.7443 11.1831 15.0719V9.20672C10.0184 8.52449 9.30161 7.29198 9.29371 5.95811V0.531254C9.29371 0.23776 9.53547 4.74073e-05 9.83351 4.74073e-05C10.1318 4.74073e-05 10.3735 0.237769 10.3735 0.531254V5.95811C10.376 6.47096 10.5247 6.97256 10.803 7.40611C11.0813 7.83949 11.4776 8.18748 11.947 8.40998C12.143 8.49151 12.272 8.67865 12.2763 8.88802V15.0719C12.2933 15.3704 12.4648 15.6394 12.7305 15.784C12.9963 15.9287 13.319 15.9287 13.5849 15.784C13.8508 15.6395 14.0223 15.3704 14.0391 15.0719V8.88802C14.0391 8.6842 14.1577 8.49855 14.3441 8.40998C14.8142 8.18801 15.2113 7.8404 15.49 7.40686C15.7688 6.97329 15.9179 6.47115 15.9204 5.95811V0.531254C15.9204 0.23776 16.1621 4.74073e-05 16.4602 4.74073e-05C16.7584 4.74073e-05 17 0.237769 17 0.531254H16.9948ZM11.4666 6.19717V0.531254C11.4666 0.23776 11.7082 4.74073e-05 12.0064 4.74073e-05C12.3045 4.74073e-05 12.5462 0.237769 12.5462 0.531254V6.19717C12.5462 6.49048 12.3045 6.72838 12.0064 6.72838C11.7082 6.72838 11.4666 6.49047 11.4666 6.19717ZM13.6261 6.19717L13.6259 0.531254C13.6259 0.23776 13.8676 4.74073e-05 14.1659 4.74073e-05C14.4639 4.74073e-05 14.7057 0.237769 14.7057 0.531254V6.19717C14.7057 6.49048 14.4639 6.72838 14.1659 6.72838C13.8676 6.72838 13.6259 6.49047 13.6259 6.19717H13.6261Z" fill="white"/>
</svg>
