<svg width="23" height="22" viewBox="0 0 23 22" fill="none" xmlns="http://www.w3.org/2000/svg">
<path d="M11.5 0C17.8512 0 23 4.92488 23 11C23 17.0752 17.8512 22 11.5 22C5.14872 22 0 17.0752 0 11C0 4.92488 5.14872 0 11.5 0ZM11.5 1.64975C6.10127 1.64975 1.72473 5.83601 1.72473 11C1.72473 16.1641 6.10127 20.3503 11.5 20.3503C16.8987 20.3503 21.2753 16.1641 21.2753 11C21.2753 5.83601 16.8987 1.64975 11.5 1.64975ZM7.43162 14.0612C8.40798 15.2465 9.8924 15.9509 11.5 15.9509C13.1053 15.9509 14.588 15.2484 15.5646 14.0658C15.8597 13.7083 16.402 13.6473 16.7758 13.9298C17.1495 14.2121 17.2132 14.7308 16.918 15.0883C15.6178 16.663 13.6389 17.6007 11.5 17.6007C9.3583 17.6007 7.37687 16.6604 6.07688 15.0822C5.78212 14.7244 5.84644 14.2057 6.22055 13.9237C6.59466 13.6418 7.13688 13.7033 7.43162 14.0612ZM8.05104 7.42627C8.84438 7.42627 9.48754 8.04143 9.48754 8.80027C9.48754 9.55916 8.84438 10.1743 8.05104 10.1743C7.25771 10.1743 6.61458 9.55916 6.61458 8.80027C6.61458 8.04143 7.25771 7.42627 8.05104 7.42627ZM14.95 7.42627C15.7433 7.42627 16.3865 8.04143 16.3865 8.80027C16.3865 9.55916 15.7433 10.1743 14.95 10.1743C14.1566 10.1743 13.5135 9.55916 13.5135 8.80027C13.5135 8.04143 14.1566 7.42627 14.95 7.42627Z" fill="white"/>
</svg>
