<svg width="25" height="9" viewBox="0 0 25 9" fill="none" xmlns="http://www.w3.org/2000/svg">
<path d="M23.6112 3.00009H8.0554C7.49993 1.20009 5.97209 0 4.16663 0C1.80546 0 0 1.94991 0 4.5C0 7.05009 1.80546 9 4.16663 9C5.97209 9 7.49993 7.79991 8.0554 5.99991H23.6112C24.3057 5.99991 25 5.24983 25 4.5C25 3.74991 24.3055 3.00009 23.6112 3.00009ZM4.16675 5.99991C3.47223 5.99991 2.77795 5.25009 2.77795 4.5C2.77795 3.74991 3.47247 3.00009 4.16675 3.00009C4.86126 3.00009 5.55554 3.75017 5.55554 4.5C5.55554 5.25009 4.86126 5.99991 4.16675 5.99991Z" fill="white"/>
</svg>
