<svg width="13" height="16" viewBox="0 0 13 16" fill="none" xmlns="http://www.w3.org/2000/svg">
<path d="M11.0962 1.94087C8.55779 -0.646956 4.44221 -0.646956 1.90381 1.94087C-0.634602 4.52953 -0.634602 8.7258 1.90381 11.3136L6.49959 16L11.0962 11.3136C13.6346 8.7258 13.6346 4.52953 11.0962 1.94087ZM6.49959 8.84201C5.95681 8.84201 5.44734 8.62306 5.063 8.22558C4.27077 7.40452 4.27077 6.06892 5.063 5.24786C5.44653 4.85038 5.95681 4.63143 6.49959 4.63143C7.04238 4.63143 7.55266 4.85038 7.93618 5.24786C8.72842 6.06892 8.72842 7.40536 7.93618 8.22558C7.55266 8.62306 7.04238 8.84201 6.49959 8.84201Z" fill="white"/>
</svg>
