<svg width="57" height="57" viewBox="0 0 57 57" fill="none" xmlns="http://www.w3.org/2000/svg">
<circle cx="28.415" cy="28.415" r="28.415" fill="#222952"/>
<path d="M21.7472 26.4939H23.6461C25.545 26.4939 26.4944 25.5445 26.4944 23.6456V21.7467C26.4944 19.8479 25.545 18.8984 23.6461 18.8984H21.7472C19.8483 18.8984 18.8989 19.8479 18.8989 21.7467V23.6456C18.8989 25.5445 19.8483 26.4939 21.7472 26.4939Z" fill="#F5F5F0"/>
<path d="M33.1405 26.4939H35.0393C36.9382 26.4939 37.8876 25.5445 37.8876 23.6456V21.7467C37.8876 19.8479 36.9382 18.8984 35.0393 18.8984H33.1405C31.2416 18.8984 30.2921 19.8479 30.2921 21.7467V23.6456C30.2921 25.5445 31.2416 26.4939 33.1405 26.4939Z" fill="#F5F5F0"/>
<path d="M33.1405 37.8872H35.0393C36.9382 37.8872 37.8876 36.9378 37.8876 35.0389V33.1401C37.8876 31.2412 36.9382 30.2917 35.0393 30.2917H33.1405C31.2416 30.2917 30.2921 31.2412 30.2921 33.1401V35.0389C30.2921 36.9378 31.2416 37.8872 33.1405 37.8872Z" fill="#F5F5F0"/>
<path d="M21.7472 37.8872H23.6461C25.545 37.8872 26.4944 36.9378 26.4944 35.0389V33.1401C26.4944 31.2412 25.545 30.2917 23.6461 30.2917H21.7472C19.8483 30.2917 18.8989 31.2412 18.8989 33.1401V35.0389C18.8989 36.9378 19.8483 37.8872 21.7472 37.8872Z" fill="#F5F5F0"/>
</svg>
