<svg width="10" height="11" viewBox="0 0 10 11" fill="none" xmlns="http://www.w3.org/2000/svg">
<path d="M4.50585 2.05078C3.96237 2.05078 3.44122 2.26667 3.05692 2.65098C2.67262 3.03528 2.45672 3.55643 2.45672 4.09991C2.45672 4.64338 2.67262 5.16454 3.05692 5.54884C3.44122 5.93313 3.96237 6.14903 4.50585 6.14903C5.04932 6.14903 5.57048 5.93314 5.95478 5.54884C6.33908 5.16453 6.55497 4.64338 6.55497 4.09991C6.55497 3.55643 6.33908 3.03527 5.95478 2.65098C5.57047 2.26668 5.04932 2.05078 4.50585 2.05078ZM4.50585 5.32938C4.17972 5.32938 3.86706 5.19985 3.63643 4.96932C3.40591 4.7387 3.27637 4.42603 3.27637 4.09991C3.27637 3.77378 3.40591 3.46112 3.63643 3.23049C3.86705 2.99996 4.17972 2.87043 4.50585 2.87043C4.83197 2.87043 5.14464 2.99996 5.37526 3.23049C5.60579 3.46111 5.73532 3.77378 5.73532 4.09991C5.73532 4.42603 5.60579 4.73869 5.37526 4.96932C5.14464 5.19985 4.83197 5.32938 4.50585 5.32938Z" fill="black"/>
<path d="M4.63275 0.00173103C3.50372 -0.0295538 2.40405 0.36418 1.55157 1.10486C0.698898 1.84566 0.155423 2.87945 0.0285412 4.00174C-0.0983405 5.1241 0.200796 6.25313 0.866574 7.16535C0.877826 7.18612 0.891548 7.20533 0.907557 7.2228L2.90745 9.72273C3.29632 10.2075 3.88427 10.4895 4.50577 10.4895C5.12728 10.4895 5.71522 10.2075 6.10409 9.72273L8.10399 7.2228C8.12 7.20533 8.13372 7.18612 8.14497 7.16535C8.72376 6.38055 9.02902 5.42744 9.01384 4.45231C8.98951 3.29145 8.52224 2.18383 7.70772 1.35638C6.8932 0.528859 5.79316 0.0442123 4.63286 0.0015671L4.63275 0.00173103ZM7.45234 6.72286L7.42773 6.75972L5.4647 9.21867C5.23134 9.50958 4.8786 9.6788 4.50573 9.6788C4.13286 9.6788 3.78013 9.50956 3.54676 9.21867L1.58373 6.75972L1.55912 6.72286C1.00101 5.97951 0.744222 5.05283 0.840097 4.12832C0.935875 3.20375 1.37727 2.34942 2.07596 1.73634C2.77459 1.12325 3.67894 0.796487 4.60821 0.821568C5.55821 0.855965 6.45901 1.25252 7.12571 1.93002C7.7926 2.60751 8.17479 3.51452 8.19409 4.46484C8.20278 5.27882 7.94196 6.07276 7.45228 6.723L7.45234 6.72286Z" fill="black"/>
</svg>
