<svg width="25" height="9" viewBox="0 0 25 9" fill="none" xmlns="http://www.w3.org/2000/svg">
<path d="M1.3888 3.00009H16.9446C17.5001 1.20009 19.0279 0 20.8334 0C23.1945 0 25 1.94991 25 4.5C25 7.05009 23.1945 9 20.8334 9C19.0279 9 17.5001 7.79991 16.9446 5.99991H1.3888C0.694283 5.99991 0 5.24983 0 4.5C0 3.74991 0.694521 3.00009 1.3888 3.00009ZM20.8333 5.99991C21.5278 5.99991 22.2221 5.25009 22.2221 4.5C22.2221 3.74991 21.5275 3.00009 20.8333 3.00009C20.1387 3.00009 19.4445 3.75017 19.4445 4.5C19.4445 5.25009 20.1387 5.99991 20.8333 5.99991Z" fill="white"/>
</svg>
