<svg width="21" height="22" viewBox="0 0 21 22" fill="none" xmlns="http://www.w3.org/2000/svg">
<path opacity="0.3" fill-rule="evenodd" clip-rule="evenodd" d="M15.3751 16.5851C13.9104 17.782 12.0391 18.5 10 18.5C5.30558 18.5 1.5 14.6944 1.5 10C1.5 5.30558 5.30558 1.5 10 1.5C14.6944 1.5 18.5 5.30558 18.5 10C18.5 12.5085 17.4134 14.7632 15.6851 16.3191C15.6071 16.3552 15.534 16.4053 15.4697 16.4697C15.4337 16.5056 15.4022 16.5443 15.3751 16.5851ZM15.9657 18.0264C14.3003 19.2662 12.2358 20 10 20C4.47715 20 0 15.5228 0 10C0 4.47715 4.47715 0 10 0C15.5228 0 20 4.47715 20 10C20 12.746 18.8932 15.2335 17.1013 17.0407L20.5303 20.4697C20.8232 20.7626 20.8232 21.2374 20.5303 21.5303C20.2374 21.8232 19.7626 21.8232 19.4697 21.5303L15.9657 18.0264Z" fill="white"/>
</svg>
