<svg width="88" height="88" viewBox="0 0 88 88" fill="none" xmlns="http://www.w3.org/2000/svg">
<circle cx="46.8167" cy="43.9206" r="30.4069" fill="white"/>
<path d="M74.9728 74.9853C92.1319 57.8295 92.1319 30.0226 74.9728 12.8668C57.8138 -4.28894 30.03 -4.28894 12.8693 12.8668C-4.28976 30.0509 -4.28976 57.8295 12.8693 74.9853C30.0016 92.1144 57.8121 92.141 74.9728 74.9853ZM22.754 44.8468C23.8244 43.7766 25.5819 43.7766 26.6523 44.8468L35.6027 53.7682L61.1913 28.2395C62.2891 27.1966 64.0191 27.1966 65.0896 28.2669C66.1601 29.3371 66.1601 31.0669 65.0896 32.1372L37.5242 59.5874C37.0026 60.1362 36.289 60.3836 35.6027 60.3836C34.8891 60.3836 34.2028 60.1368 33.6533 59.5874L22.754 48.7448C21.6835 47.6732 21.6835 45.9168 22.754 44.8465V44.8468Z" fill="#46B649"/>
</svg>
