<svg width="44" height="51" viewBox="0 0 44 51" fill="none" xmlns="http://www.w3.org/2000/svg">
<path d="M11.1673 21.2023L17.1804 19.8065V34.7857C17.1804 35.5909 17.8245 36.2354 18.6301 36.2354H24.5895C25.3947 36.2354 26.0392 35.5912 26.0392 34.7857V19.8065L32.0523 21.2023C33.824 21.6319 35.1662 19.6991 34.1996 18.1419L23.3545 0.961484C23.1399 0.585481 22.8175 0.317334 22.4418 0.156306C21.4756 -0.219697 20.4555 0.102752 19.972 0.90793L9.07315 18.0883C8.05335 19.6991 9.39555 21.632 11.1673 21.2023Z" fill="#BADA8B"/>
<path d="M41.7163 42.1946H1.44969C0.644515 42.1946 0 42.8388 0 43.6443V49.5503C0 50.3555 0.64415 51 1.44969 51H41.7163C42.5215 51 43.166 50.3558 43.166 49.5503V43.6443C43.166 42.8388 42.5214 42.1946 41.7163 42.1946Z" fill="#BADA8B"/>
</svg>
