<svg width="17" height="17" viewBox="0 0 17 17" fill="none" xmlns="http://www.w3.org/2000/svg">
<path d="M1.45175 0C0.837629 0 0.338257 0.497286 0.338257 1.11349C0.338257 1.42166 0.463657 1.70003 0.663319 1.8997C0.865205 2.10159 1.14357 2.22477 1.44953 2.22477C8.79554 2.22477 14.7709 8.20244 14.7709 15.5462C14.7709 16.1603 15.2682 16.6597 15.8844 16.6597C16.5009 16.6598 17.0003 16.1627 17.0003 15.5463C17.0003 11.3984 15.381 7.49679 12.4422 4.55596C9.50119 1.61926 5.59971 0.000128975 1.4518 0.000128975L1.45175 0Z" fill="white"/>
<path d="M1.45175 4.45176C0.837629 4.45176 0.338257 4.94904 0.338257 5.56525C0.338257 5.87342 0.463657 6.15179 0.663319 6.35366C0.865205 6.55555 1.14357 6.67873 1.44953 6.67873C6.33928 6.67873 10.3191 10.6566 10.3191 15.5464C10.3191 16.1605 10.8164 16.6599 11.4326 16.6599C12.0487 16.6599 12.5461 16.1626 12.5461 15.5464C12.5464 9.43059 7.5698 4.45166 1.45173 4.45166L1.45175 4.45176Z" fill="white"/>
<path d="M1.45175 8.90603C0.837629 8.90603 0.338257 9.40331 0.338257 10.0195C0.338257 10.3277 0.463657 10.6061 0.663319 10.8057C0.865205 11.0076 1.14357 11.1308 1.45173 11.1308C3.88697 11.1329 5.86753 13.1112 5.86526 15.5443C5.86526 16.1605 6.36254 16.6578 6.97875 16.6578C7.59288 16.6578 8.09225 16.1605 8.09225 15.5443C8.09447 11.8874 5.11525 8.90601 1.45165 8.90601L1.45175 8.90603Z" fill="white"/>
<path d="M1.73634 13.5213C1.27313 13.5213 0.833185 13.6977 0.501763 14.0291C0.176552 14.3543 0.000151234 14.7941 0.000151234 15.2573C-0.0062226 15.7397 0.18929 16.1732 0.507986 16.4919C0.822526 16.8064 1.25386 16.9999 1.74272 16.9999C2.69688 16.9999 3.47891 16.2158 3.47891 15.2637L3.48529 15.2573C3.48084 14.299 2.69673 13.5149 1.73634 13.5213Z" fill="white"/>
</svg>
