<svg width="11" height="11" viewBox="0 0 11 11" fill="none" xmlns="http://www.w3.org/2000/svg">
<path d="M7.36593 4.1144L10.3194 1.17167L10.3098 2.83973C10.3067 2.97879 10.4167 3.09978 10.5556 3.09668L10.7318 3.09651C10.8706 3.09324 10.9855 3.01046 10.9884 2.8714L10.9956 0.38652C10.9956 0.384121 10.9862 0.382228 10.9862 0.379818L10.9997 0.253836C11.0011 0.183961 10.9848 0.121658 10.9398 0.0770931C10.8954 0.0321732 10.8331 0.00480823 10.7639 0.00670141L10.6384 0.00962722C10.636 0.00962722 10.6341 0.0104878 10.6315 0.0108427L8.16921 0C8.0305 0.00309792 7.91565 0.118065 7.91256 0.2573L7.91222 0.433892C7.93332 0.59791 8.06192 0.693773 8.20063 0.690675L9.82346 0.694978L6.88045 3.62751C6.74637 3.76192 6.74637 3.97981 6.88045 4.1144C7.01452 4.24864 7.23186 4.24864 7.36593 4.1144ZM3.64473 6.88562L0.691268 9.81917L0.70071 8.16024C0.703972 8.021 0.593747 7.90001 0.455035 7.90311L0.268093 7.90345C0.129037 7.9069 0.0143483 7.98951 0.0114299 8.12874L0.00421958 10.6136C0.00421958 10.616 0.0136616 10.6176 0.0136616 10.6203L9.94078e-05 10.746C-0.00144565 10.8158 0.0148633 10.8785 0.0600135 10.9227C0.104305 10.9678 0.166795 10.995 0.235807 10.9933L0.361472 10.9902C0.363865 10.9902 0.365582 10.9892 0.368339 10.9892L2.84146 11C2.98017 10.9966 3.09486 10.8816 3.09811 10.7425L3.09845 10.5658C3.07735 10.4021 2.94876 10.3059 2.81004 10.309L1.18722 10.3047L4.13005 7.37251C4.26413 7.23808 4.26413 7.0202 4.13005 6.88579C3.99598 6.75137 3.7788 6.7512 3.64472 6.88562H3.64473ZM10.9958 10.6134L10.9886 8.12855C10.9855 7.98931 10.8707 7.9067 10.732 7.90326L10.5558 7.90292C10.4169 7.89981 10.3071 8.02097 10.31 8.16003L10.3196 9.82809L7.36595 6.88558C7.23187 6.75117 7.01453 6.75117 6.88046 6.88558C6.74638 7.02 6.74638 7.23789 6.88046 7.3723L9.82329 10.3045L8.20063 10.3088C8.06192 10.3057 7.93333 10.4019 7.91222 10.5656L7.91256 10.7423C7.91582 10.8816 8.03067 10.9965 8.16921 10.9998L10.6317 10.989C10.6343 10.989 10.6362 10.99 10.6386 10.99L10.7641 10.9931C10.8332 10.9948 10.8957 10.9676 10.94 10.9225C10.985 10.8781 11.0011 10.8156 10.9999 10.7458L10.9864 10.6201C10.9864 10.6174 10.9958 10.6158 10.9958 10.6134L10.9958 10.6134ZM1.18723 0.695247L2.81024 0.690977C2.94895 0.694074 3.07753 0.598039 3.09865 0.434182L3.0983 0.257439C3.09486 0.118216 2.98016 0.00306565 2.84164 0.000139837L0.368339 0.0108105C0.365593 0.0104662 0.363876 0.00960571 0.361472 0.00960571L0.235807 0.00666914C0.166805 0.00478672 0.104144 0.0321517 0.0600135 0.0770608C0.0148633 0.121636 -0.00143493 0.183939 9.94078e-05 0.253814L0.0136616 0.379797C0.0136616 0.382195 0.00421958 0.383927 0.00421958 0.386509L0.0114299 2.87139C0.01452 3.01045 0.129209 3.09323 0.268093 3.0965L0.455045 3.09666C0.593758 3.09976 0.70379 2.97877 0.7007 2.83971L0.691257 1.18077L3.64473 4.11433C3.77864 4.24876 3.99616 4.24876 4.13025 4.11433C4.26433 3.9799 4.26432 3.76186 4.13025 3.62744L1.18723 0.695247Z" fill="white"/>
</svg>
